<svg width="80" height="32" viewBox="0 0 80 32" fill="none" xmlns="http://www.w3.org/2000/svg">
<circle cx="16" cy="16" r="7.25" fill="#FFB9DC" stroke="#343A40" stroke-width="1.5"/>
<path d="M38.703 8.79079C39.2462 7.7364 40.7538 7.7364 41.297 8.79079L41.6678 9.51056C41.9942 10.1441 42.7306 10.4491 43.4094 10.232L44.1806 9.98521C45.3103 9.62376 46.3762 10.6897 46.0148 11.8194L45.7681 12.5906C45.5509 13.2694 45.8559 14.0058 46.4894 14.3322L47.2092 14.703C48.2636 15.2462 48.2636 16.7538 47.2092 17.297L46.4894 17.6678C45.8559 17.9942 45.5509 18.7306 45.7681 19.4094L46.0148 20.1806C46.3762 21.3103 45.3103 22.3762 44.1806 22.0148L43.4094 21.7681C42.7306 21.5509 41.9942 21.8559 41.6678 22.4894L41.297 23.2092C40.7538 24.2636 39.2462 24.2636 38.703 23.2092L38.3322 22.4894C38.0058 21.8559 37.2694 21.5509 36.5906 21.7681L35.8194 22.0148C34.6897 22.3762 33.6238 21.3103 33.9852 20.1806L34.232 19.4094C34.4491 18.7306 34.1441 17.9942 33.5106 17.6678L32.7908 17.297C31.7364 16.7538 31.7364 15.2462 32.7908 14.703L33.5106 14.3322C34.1441 14.0058 34.4491 13.2694 34.232 12.5906L33.9852 11.8194C33.6238 10.6897 34.6897 9.62376 35.8194 9.98521L36.5906 10.232C37.2694 10.4491 38.0058 10.1441 38.3322 9.51056L38.703 8.79079Z" fill="#FAD8E9"/>
<path d="M43.8907 16C43.8907 18.1488 42.1488 19.8907 40 19.8907C37.8512 19.8907 36.1093 18.1488 36.1093 16C36.1093 13.8512 37.8512 12.1093 40 12.1093C42.1488 12.1093 43.8907 13.8512 43.8907 16Z" fill="#FB5FAB"/>
<path d="M38.703 8.79079C39.2462 7.7364 40.7538 7.7364 41.297 8.79079L41.6678 9.51056C41.9942 10.1441 42.7306 10.4491 43.4094 10.232L44.1806 9.98521C45.3103 9.62376 46.3762 10.6897 46.0148 11.8194L45.7681 12.5906C45.5509 13.2694 45.8559 14.0058 46.4894 14.3322L47.2092 14.703C48.2636 15.2462 48.2636 16.7538 47.2092 17.297L46.4894 17.6678C45.8559 17.9942 45.5509 18.7306 45.7681 19.4094L46.0148 20.1806C46.3762 21.3103 45.3103 22.3762 44.1806 22.0148L43.4094 21.7681C42.7306 21.5509 41.9942 21.8559 41.6678 22.4894L41.297 23.2092C40.7538 24.2636 39.2462 24.2636 38.703 23.2092L38.3322 22.4894C38.0058 21.8559 37.2694 21.5509 36.5906 21.7681L35.8194 22.0148C34.6897 22.3762 33.6238 21.3103 33.9852 20.1806L34.232 19.4094C34.4491 18.7306 34.1441 17.9942 33.5106 17.6678L32.7908 17.297C31.7364 16.7538 31.7364 15.2462 32.7908 14.703L33.5106 14.3322C34.1441 14.0058 34.4491 13.2694 34.232 12.5906L33.9852 11.8194C33.6238 10.6897 34.6897 9.62376 35.8194 9.98521L36.5906 10.232C37.2694 10.4491 38.0058 10.1441 38.3322 9.51056L38.703 8.79079Z" stroke="#343A40" stroke-width="1.5"/>
<path d="M43.8907 16C43.8907 18.1488 42.1488 19.8907 40 19.8907C37.8512 19.8907 36.1093 18.1488 36.1093 16C36.1093 13.8512 37.8512 12.1093 40 12.1093C42.1488 12.1093 43.8907 13.8512 43.8907 16Z" stroke="#343A40" stroke-width="1.5"/>
<circle cx="64" cy="16" r="7.25" fill="#FFB9DC" stroke="#343A40" stroke-width="1.5"/>
</svg>
