<svg width="40" height="40" viewBox="0 0 40 40" fill="none" xmlns="http://www.w3.org/2000/svg">
<path d="M17.6315 4.15545C18.8697 1.75206 22.306 1.75206 23.5442 4.15544L24.3895 5.79608C25.1335 7.24024 26.812 7.93551 28.3593 7.44044L30.1171 6.87802C32.6921 6.05412 35.1219 8.48395 34.298 11.059L33.7356 12.8167C33.2405 14.364 33.9358 16.0425 35.38 16.7866L37.0206 17.6318C39.424 18.8701 39.424 22.3063 37.0206 23.5446L35.38 24.3898C33.9358 25.1339 33.2405 26.8124 33.7356 28.3597L34.298 30.1174C35.1219 32.6925 32.6921 35.1223 30.1171 34.2984L28.3593 33.736C26.812 33.2409 25.1335 33.9362 24.3895 35.3803L23.5442 37.021C22.306 39.4243 18.8697 39.4243 17.6315 37.021L16.7862 35.3803C16.0422 33.9362 14.3637 33.2409 12.8164 33.736L11.0586 34.2984C8.48358 35.1223 6.05376 32.6925 6.87765 30.1174L7.44007 28.3597C7.93514 26.8124 7.23988 25.1339 5.79572 24.3898L4.15508 23.5446C1.75169 22.3063 1.75169 18.8701 4.15508 17.6318L5.79572 16.7866C7.23988 16.0425 7.93514 14.364 7.44007 12.8167L6.87765 11.059C6.05376 8.48395 8.48358 6.05412 11.0586 6.87802L12.8164 7.44044C14.3637 7.93551 16.0422 7.24024 16.7862 5.79608L17.6315 4.15545Z" fill="#FAD8E9"/>
<path d="M29.4563 20.5882C29.4563 25.4861 25.4857 29.4566 20.5878 29.4566C15.6899 29.4566 11.7194 25.4861 11.7194 20.5882C11.7194 15.6903 15.6899 11.7198 20.5878 11.7198C25.4857 11.7198 29.4563 15.6903 29.4563 20.5882Z" fill="#FB5FAB"/>
<path fill-rule="evenodd" clip-rule="evenodd" d="M15.5115 2.73668C17.3914 -0.912227 22.6086 -0.912228 24.4885 2.73668L25.3361 4.38186C25.6986 5.08559 26.5166 5.42438 27.2705 5.18314L29.0332 4.61917C32.9427 3.3683 36.6317 7.05735 35.3808 10.9668L34.8169 12.7295C34.5756 13.4835 34.9144 14.3014 35.6181 14.6639L37.2633 15.5115C40.9122 17.3914 40.9122 22.6086 37.2633 24.4885L35.6181 25.3361C34.9144 25.6986 34.5756 26.5166 34.8169 27.2705L35.3808 29.0332C36.6317 32.9427 32.9427 36.6317 29.0332 35.3808L27.2705 34.8169C26.5166 34.5756 25.6986 34.9144 25.3361 35.6181L24.4885 37.2633C22.6086 40.9122 17.3914 40.9122 15.5115 37.2633L14.6639 35.6181C14.3014 34.9144 13.4835 34.5756 12.7295 34.8169L10.9668 35.3808C7.05735 36.6317 3.3683 32.9427 4.61917 29.0332L5.18314 27.2705C5.42438 26.5166 5.08559 25.6986 4.38186 25.3361L2.73668 24.4885C-0.912227 22.6086 -0.912228 17.3914 2.73668 15.5115L4.38186 14.6639C5.08559 14.3014 5.42438 13.4835 5.18314 12.7295L4.61917 10.9668C3.3683 7.05735 7.05735 3.3683 10.9668 4.61917L12.7295 5.18314C13.4835 5.42438 14.3014 5.08559 14.6639 4.38186L15.5115 2.73668ZM21.4406 4.30694C20.8372 3.13578 19.1628 3.13578 18.5594 4.30694L17.7118 5.95211C16.5822 8.14469 14.0338 9.20026 11.6846 8.44864L9.922 7.88466C8.66722 7.48318 7.48318 8.66722 7.88466 9.922L8.44863 11.6846C9.20026 14.0338 8.14469 16.5822 5.95211 17.7118L4.30694 18.5594C3.13578 19.1628 3.13578 20.8372 4.30694 21.4406L5.95211 22.2882C8.14469 23.4178 9.20026 25.9662 8.44864 28.3154L7.88466 30.078C7.48318 31.3328 8.66722 32.5168 9.922 32.1153L11.6846 31.5514C14.0338 30.7997 16.5822 31.8553 17.7118 34.0479L18.5594 35.6931C19.1628 36.8642 20.8372 36.8642 21.4406 35.6931L22.2882 34.0479C23.4178 31.8553 25.9662 30.7997 28.3154 31.5514L30.078 32.1153C31.3328 32.5168 32.5168 31.3328 32.1153 30.078L31.5514 28.3154C30.7997 25.9662 31.8553 23.4178 34.0479 22.2882L35.6931 21.4406C36.8642 20.8372 36.8642 19.1628 35.6931 18.5594L34.0479 17.7118C31.8553 16.5822 30.7997 14.0338 31.5514 11.6846L32.1153 9.922C32.5168 8.66722 31.3328 7.48318 30.078 7.88466L28.3154 8.44864C25.9662 9.20026 23.4178 8.14469 22.2882 5.95211L21.4406 4.30694ZM20 12.8213C16.0353 12.8213 12.8213 16.0353 12.8213 20C12.8213 23.9647 16.0353 27.1787 20 27.1787C23.9647 27.1787 27.1787 23.9647 27.1787 20C27.1787 16.0353 23.9647 12.8213 20 12.8213ZM9.39277 20C9.39277 14.1418 14.1418 9.39277 20 9.39277C25.8582 9.39277 30.6072 14.1418 30.6072 20C30.6072 25.8582 25.8582 30.6072 20 30.6072C14.1418 30.6072 9.39277 25.8582 9.39277 20Z" fill="#343A40"/>
</svg>
